<?xml version="1.0" encoding="iso-8859-1"?>
<!-- Generator: Adobe Illustrator 15.1.0, SVG Export Plug-In . SVG Version: 6.00 Build 0)  -->
<!DOCTYPE svg PUBLIC "-//W3C//DTD SVG 1.1//EN" "http://www.w3.org/Graphics/SVG/1.1/DTD/svg11.dtd">
<svg version="1.1" id="&#x56FE;&#x5C42;_1" xmlns="http://www.w3.org/2000/svg" xmlns:xlink="http://www.w3.org/1999/xlink" x="0px"
	 y="0px" width="10px" height="10px" viewBox="0 0 10 10" enable-background="new 0 0 10 10" xml:space="preserve">
<g>
	<polygon fill="#F5F5F5" points="3.3,6 5.5,4.2 3.4,3.9 6.5,3.9 4.6,5.6 6.6,6 	"/>
	<polygon fill="#656464" points="6.5,3.9 3.4,3.9 5.5,4.2 3.3,6 6.6,6 4.6,5.6 	"/>
	<path fill="#656464" d="M7.4,0.6C6.7,0.2,5.9,0,5,0C4.1,0,3.3,0.2,2.6,0.6C1.8,1.1,1.1,1.8,0.6,2.6C0.2,3.3,0,4.1,0,5
		c0,0.9,0.2,1.7,0.6,2.4c0.5,0.9,1.2,1.6,2,2C3.3,9.8,4.1,10,5,10s1.7-0.2,2.4-0.6c0.9-0.5,1.6-1.2,2-2C9.8,6.7,10,5.9,10,5
		c0-0.9-0.2-1.7-0.6-2.4C8.9,1.8,8.2,1.1,7.4,0.6z M7.8,4.5l-1.1,1l0.4,2.4C7,8,7,8,6.9,8l-2-1.2L3,8C2.8,8,2.8,8,2.8,7.9l0.3-2.4
		L1.9,4.4L1.5,4.1v0h1h1.3l0.3-0.5L4.9,2C4.9,2,4.9,2,5,2l0.8,1.6l0.3,0.5h1.3h0.8c0.1,0,0.1,0,0.1,0.1L7.8,4.5z"/>
</g>
</svg>
