<?xml version="1.0" encoding="iso-8859-1"?>
<!-- Generator: Adobe Illustrator 15.1.0, SVG Export Plug-In . SVG Version: 6.00 Build 0)  -->
<!DOCTYPE svg PUBLIC "-//W3C//DTD SVG 1.1//EN" "http://www.w3.org/Graphics/SVG/1.1/DTD/svg11.dtd">
<svg version="1.1" id="&#x56FE;&#x5C42;_1" xmlns="http://www.w3.org/2000/svg" xmlns:xlink="http://www.w3.org/1999/xlink" x="0px"
	 y="0px" width="10px" height="10px" viewBox="0 0 10 10" enable-background="new 0 0 10 10" xml:space="preserve">
<path fill="#656464" d="M5,5L5,5C5,5,5,5,5,5z"/>
<g>
	<path fill="#FFFFFF" d="M8.9,4.5L8.9,4.5c0.5-1.7-0.6-2.5-1.4-2.6c-0.5-0.1-0.9,0-1.1,0c0,0,0,0,0,0c0,0,0,0,0,0
		c-0.1,0-0.2,0.2-0.2,0.3c0,0.2,0.1,0.3,0.3,0.3c0,0,0.2,0,0.3-0.1c0.1,0,1.1,0,1.5,0.8c0.3,0.6,0.1,1,0.1,1c0,0-0.1,0.1-0.1,0.3
		c0,0.2,0.1,0.3,0.3,0.3C8.7,4.8,8.8,4.8,8.9,4.5z"/>
	<path fill="#FFFFFF" d="M7,4.9C6.7,4.8,6.8,4.6,6.8,4.6s0.3-0.5-0.1-0.8C6.3,3.4,5.3,3.8,5.3,3.8C4.8,4,5,3.8,5,3.5
		c0-0.4-0.1-1-1.2-0.6c-1.1,0.4-2,1.7-2,1.7C1.1,5.4,1.2,6.1,1.2,6.1c0.2,1.5,1.7,1.9,3,2c1.3,0.1,3-0.4,3.6-1.6
		C8.2,5.4,7.3,4.9,7,4.9z M4.3,7.6C3,7.7,1.9,7,1.9,6.2s1-1.5,2.3-1.6c1.3-0.1,2.3,0.5,2.3,1.3C6.6,6.8,5.5,7.6,4.3,7.6z"/>
	<path fill="#FFFFFF" d="M7.6,4.3c0.1,0,0.2-0.1,0.2-0.2c0,0,0,0,0,0C8,2.7,6.7,3,6.7,3C6.5,3,6.4,3.1,6.4,3.2
		c0,0.1,0.1,0.2,0.2,0.2c0.9-0.2,0.7,0.7,0.7,0.7C7.4,4.2,7.5,4.3,7.6,4.3z"/>
	<path fill="#FFFFFF" d="M4,5.2C2.7,5.3,2.9,6.5,2.9,6.5s0,0.4,0.3,0.6C4,7.5,4.7,7.3,5.1,6.7C5.5,6.2,5.3,5,4,5.2z M3.7,6.9
		c-0.2,0-0.4-0.1-0.4-0.3s0.2-0.4,0.4-0.4c0.3,0,0.5,0.1,0.5,0.3S3.9,6.8,3.7,6.9z M4.4,6.2c-0.1,0.1-0.2,0.1-0.2,0
		c0-0.1,0-0.2,0.1-0.2c0.1-0.1,0.2,0,0.2,0C4.5,6,4.5,6.1,4.4,6.2z"/>
	<path fill="#656464" d="M4.3,4.6C3,4.7,1.9,5.3,1.9,6.2s1,1.5,2.3,1.4c1.3-0.1,2.3-0.9,2.3-1.7C6.6,5.1,5.5,4.5,4.3,4.6z M5.1,6.7
		C4.7,7.3,4,7.5,3.2,7.1C2.9,6.9,2.9,6.5,2.9,6.5S2.7,5.3,4,5.2C5.3,5,5.5,6.2,5.1,6.7z"/>
	<path fill="#656464" d="M4.3,5.9C4.2,6,4.2,6.1,4.2,6.2c0,0.1,0.1,0.1,0.2,0C4.5,6.1,4.5,6,4.5,6C4.5,5.9,4.4,5.9,4.3,5.9z"/>
	<path fill="#656464" d="M3.7,6.1c-0.2,0-0.4,0.2-0.4,0.4s0.2,0.3,0.4,0.3c0.2,0,0.4-0.2,0.4-0.4S3.9,6.1,3.7,6.1z"/>
	<path fill="#656464" d="M9.5,2.9C9,1.8,8.2,1,7.1,0.5C6.5,0.2,5.7,0,5,0C4.3,0,3.5,0.2,2.9,0.5C1.8,1,1,1.8,0.5,2.9
		C0.2,3.5,0,4.3,0,5s0.2,1.5,0.5,2.1C1,8.2,1.8,9,2.9,9.5C3.5,9.8,4.3,10,5,10s1.5-0.2,2.1-0.5C8.2,9,9,8.2,9.5,7.1
		C9.8,6.5,10,5.7,10,5S9.8,3.5,9.5,2.9z M7.7,6.5C7.2,7.6,5.5,8.1,4.2,8c-1.2-0.1-2.8-0.5-3-2c0,0-0.1-0.7,0.6-1.5
		c0,0,0.9-1.3,2-1.7C4.9,2.5,5,3.1,5,3.5C5,3.8,4.8,4,5.3,3.8c0,0,1.1-0.5,1.5-0.1c0.4,0.4,0.1,0.8,0.1,0.8S6.7,4.8,7,4.9
		C7.3,4.9,8.2,5.4,7.7,6.5z M6.7,3.4c-0.1,0-0.2-0.1-0.2-0.2C6.4,3.1,6.5,3,6.7,3c0,0,1.3-0.2,1.2,1.2c0,0,0,0,0,0
		c0,0.1-0.1,0.2-0.2,0.2c-0.1,0-0.2-0.1-0.2-0.2C7.4,4.1,7.6,3.2,6.7,3.4z M8.9,4.5L8.9,4.5c0,0.2-0.2,0.3-0.3,0.3
		c-0.2,0-0.3-0.1-0.3-0.3c0-0.1,0.1-0.3,0.1-0.3c0-0.1,0.2-0.4-0.1-1C7.8,2.4,6.8,2.4,6.7,2.4c-0.1,0-0.3,0.1-0.3,0.1
		c-0.2,0-0.3-0.1-0.3-0.3c0-0.1,0.1-0.3,0.2-0.3c0,0,0,0,0,0c0,0,0,0,0,0c0.1,0,0.6-0.1,1.1,0C8.3,2.1,9.4,2.9,8.9,4.5z"/>
</g>
</svg>
